# xmcd
#
# Track frame offsets:
#	150
#	9211
#	23427
#	40584
#	53731
#	66099
#	80101
#	98556
#	112577
#	128270
#	146697
#	160320
#	175765
#
# Disc length: 2561 seconds
#
# Revision: 1
# Processed by: cddbd v1.5.2PL0 Copyright (c) Steve Scherf et al.
# Submitted via: audiograbber 1.83.01
#
DISCID=8b09ff0d
DTITLE=Danielle - Tuch The Sky Danielle
DYEAR=1900
DGENRE=
TTITLE0=That´s Enough Of That
TTITLE1=The Bitter With The Sweet
TTITLE2=Half Past Forever
TTITLE3=Tuch The Sky
TTITLE4=First Glance
TTITLE5=Wish It Would Rain
TTITLE6=Shooting Candles At The Moon
TTITLE7=Second To None
TTITLE8=Crazy In Love 
TTITLE9=Talkin To The Mirror
TTITLE10=Somewhere Before
TTITLE11=A Night To Remember
TTITLE12=Out Of My Mind
EXTD=
EXTT0=
EXTT1=
EXTT2=
EXTT3=
EXTT4=
EXTT5=
EXTT6=
EXTT7=
EXTT8=
EXTT9=
EXTT10=
EXTT11=
EXTT12=
PLAYORDER=
